<!-- Generator: Adobe Illustrator 22.0.1, SVG Export Plug-In  -->
<svg version="1.1"
	 xmlns="http://www.w3.org/2000/svg" xmlns:xlink="http://www.w3.org/1999/xlink" xmlns:a="http://ns.adobe.com/AdobeSVGViewerExtensions/3.0/"
	 x="0px" y="0px" width="316px" height="316px" viewBox="0 0 316 316" style="enable-background:new 0 0 316 316;"
	 xml:space="preserve">
<style type="text/css">
	.st0{fill:#FFFFFF;}
	.st1{fill:none;stroke:#FFFFFF;stroke-width:16;stroke-miterlimit:10;}
</style>
<defs>
</defs>
<g>
	<path class="st0" d="M223.4,142.2l-83-47.9c-12.2-7-27.4,1.8-27.4,15.8v95.8c0,14,15.2,22.8,27.4,15.8l83-47.9
		C235.5,166.8,235.5,149.2,223.4,142.2z"/>
	<g>
		<path class="st0" d="M224.1,140.9c-23.3-13.5-46.7-27-70-40.4c-9.3-5.4-19.4-13.4-30.7-8.5c-12.9,5.6-11.9,18.6-11.9,30.2
			c0,27.8-0.7,55.7,0,83.5c0.4,16.1,17,24.4,30.6,16.7c11.1-6.3,22.1-12.8,33.1-19.1c13.8-8,27.6-15.9,41.4-23.9
			c2.6-1.5,5.4-3,7.9-4.6c7.9-5.1,11.3-14.9,8.1-23.7C231.1,146.7,228,143.3,224.1,140.9c-1.6-1-3.2,1.6-1.5,2.6
			c11,6.8,10.9,22.1,0,29c-2.2,1.4-4.4,2.6-6.6,3.8c-12.2,7-24.4,14.1-36.6,21.1c-11.7,6.7-23.3,13.5-35,20.2
			c-3.2,1.9-6.5,4.1-10.3,4.8c-10.6,1.9-19.2-6.5-19.6-16.7c-0.9-25.5,0-51.2,0-76.7c0-9-2.3-22.8,4.2-30c10.1-11.3,22.1-2.7,32,3
			c24,13.8,47.9,27.7,71.9,41.5C224.3,144.5,225.8,141.9,224.1,140.9z"/>
	</g>
</g>
<path class="st1" d="M308,158L308,158c0,82.5-67.5,150-150,150h0C75.5,308,8,240.5,8,158v0C8,75.5,75.5,8,158,8h0
	C240.5,8,308,75.5,308,158z"/>
</svg>
