<?xml version="1.0" encoding="utf-8"?>
<!DOCTYPE svg PUBLIC "-//W3C//DTD SVG 1.1//EN" "http://www.w3.org/Graphics/SVG/1.1/DTD/svg11.dtd">
<svg version="1.1" id="图形" xmlns="http://www.w3.org/2000/svg" xmlns:xlink="http://www.w3.org/1999/xlink" x="0px" y="0px" width="1024px" height="1024px" viewBox="0 0 1024 1024" enable-background="new 0 0 1024 1024" xml:space="preserve">
  <path fill="#fff" d="M806.102016 440.673024c84.93056 0 154.021888 69.102592 154.021888 154.00448 0 84.912128-69.091328 154.015744-154.021888 154.015744-84.929536 0-154.021888-69.103616-154.021888-154.015744 0-7.515136 0.722944-14.841856 1.788928-22.08768L330.047488 448.06016c-28.127232 29.853696-67.841024 48.60928-111.97952 48.60928-84.929536 0-154.021888-69.091328-154.021888-154.003456 0-84.912128 69.092352-154.0096 154.021888-154.0096 33.088512 0 63.71328 10.602496 88.839168 28.438528l219.40224-146.249728c-9.053184-19.56864-14.22336-41.257984-14.22336-64.202752 0-84.912128 69.066752-154.028032 154.0096-154.028032 84.892672 0 154.008576 69.115904 154.008576 154.028032 0 84.913152-69.115904 154.00448-154.008576 154.00448-41.847808 0-79.77472-16.807936-107.557888-43.99104L346.560512 257.98016c16.072704 24.334336 25.504768 53.398528 25.504768 84.685824 0 20.231168-4.018176 39.513088-11.147264 57.238528L671.828992 519.471872C698.215424 472.517376 748.490752 440.673024 806.102016 440.673024" transform="translate(0, 812) scale(1, -1)"/>
</svg>
